<?xml version="1.0" standalone="no"?>
<!DOCTYPE svg PUBLIC "-//W3C//DTD SVG 20010904//EN"
 "http://www.w3.org/TR/2001/REC-SVG-20010904/DTD/svg10.dtd">
<svg version="1.0" xmlns="http://www.w3.org/2000/svg"
 width="389.000000pt" height="389.000000pt" viewBox="0 0 389.000000 389.000000"
 preserveAspectRatio="xMidYMid meet">
<metadata>
Created by potrace 1.11, written by Peter Selinger 2001-2013
</metadata>
<g transform="translate(0.000000,389.000000) scale(0.100000,-0.100000)"
fill="#000000" stroke="none">
<path d="M1095 2403 c-37 -104 -121 -333 -187 -511 -65 -178 -118 -330 -118
-338 0 -12 26 -14 168 -12 l167 3 25 75 26 75 169 3 c109 2 172 -1 179 -8 6
-6 20 -41 31 -78 l21 -67 172 -3 c95 -1 172 1 172 5 0 5 -85 240 -188 523
l-188 515 -190 3 -190 2 -69 -187z m304 -308 c23 -68 41 -129 41 -135 0 -6
-34 -10 -90 -10 -49 0 -90 3 -90 7 0 18 85 263 92 263 4 0 25 -56 47 -125z"/>
<path d="M2000 2065 l0 -525 163 2 162 3 5 180 5 180 95 -180 95 -180 178 -3
c97 -1 177 1 177 5 0 5 -47 91 -105 192 -58 101 -105 189 -105 195 0 7 19 20
42 31 51 22 117 87 141 138 41 86 39 215 -4 301 -44 89 -139 154 -253 175 -33
6 -178 11 -328 11 l-268 0 0 -525z m527 223 c33 -36 34 -97 3 -128 -17 -17
-33 -20 -110 -20 l-90 0 0 85 0 85 88 0 c79 0 91 -2 109 -22z"/>
</g>
</svg>
